<svg xmlns="http://www.w3.org/2000/svg" viewBox="0 0 1024 1024">
  <defs>
    <linearGradient id="bg" x1="160" y1="120" x2="864" y2="904" gradientUnits="userSpaceOnUse">
      <stop offset="0" stop-color="#163c34"/>
      <stop offset="1" stop-color="#0c211e"/>
    </linearGradient>
    <linearGradient id="accent" x1="626" y1="265" x2="801" y2="503" gradientUnits="userSpaceOnUse">
      <stop offset="0" stop-color="#67e8c8"/>
      <stop offset="1" stop-color="#22b8a3"/>
    </linearGradient>
  </defs>
  <rect width="1024" height="1024" rx="232" fill="url(#bg)"/>
  <path d="M296 285c0-34 27-61 61-61h318l117 117v457c0 34-27 61-61 61H357c-34 0-61-27-61-61V285Z" fill="#03110f" opacity=".28"/>
  <g>
    <path d="M296 255c0-34 27-61 61-61h318l117 117v457c0 34-27 61-61 61H357c-34 0-61-27-61-61V255Z" fill="#f7fbf8"/>
    <path d="M675 194v94c0 31 25 56 56 56h61L675 194Z" fill="url(#accent)"/>
    <path d="M392 420h260" stroke="#183b34" stroke-width="42" stroke-linecap="round"/>
    <path d="M392 535h288" stroke="#183b34" stroke-width="42" stroke-linecap="round"/>
    <path d="M392 650h184" stroke="#183b34" stroke-width="42" stroke-linecap="round"/>
  </g>
  <path d="M258 754h508" stroke="#67e8c8" stroke-width="34" stroke-linecap="round" opacity=".85"/>
</svg>
